<svg width="28" height="26" viewBox="0 0 28 26" fill="none" xmlns="http://www.w3.org/2000/svg">
<path d="M13.375 8H24.245C25.0262 8 25.4162 8 25.7025 8.125C26.9675 8.68375 26.4025 10.0875 26.19 11.0975C26.1702 11.1887 26.1293 11.2741 26.0708 11.3468C26.0122 11.4195 25.9374 11.4775 25.8525 11.5162C25.5019 11.6777 25.1953 11.9209 24.9582 12.2254C24.7211 12.5299 24.5605 12.8868 24.49 13.2663L23.7487 17.485C23.4237 19.3413 23.3112 21.9925 21.6862 23.3C20.4925 24.25 18.7737 24.25 15.335 24.25H12.665C9.22746 24.25 7.50746 24.25 6.31496 23.3C4.68871 21.9925 4.57746 19.3413 4.25121 17.485L3.50996 13.2663C3.43938 12.8868 3.27881 12.5299 3.04173 12.2254C2.80465 11.9209 2.49798 11.6777 2.14746 11.5162C2.0625 11.4775 1.98775 11.4195 1.92916 11.3468C1.87057 11.2741 1.82975 11.1887 1.80996 11.0975C1.59746 10.0887 1.03246 8.68375 2.29746 8.12625C2.58371 8 2.97496 8 3.75496 8H8.37496M16.5 13H11.5M7.12496 11.75L11.5 1.75M17.75 1.75L20.875 8" stroke="black" stroke-width="2" stroke-linecap="round" stroke-linejoin="round"/>
</svg>
