<svg width="34" height="34" viewBox="0 0 34 34" fill="none" xmlns="http://www.w3.org/2000/svg">
<path d="M5.66675 25.4999C5.66675 23.997 6.26377 22.5557 7.32648 21.493C8.38918 20.4303 9.83052 19.8333 11.3334 19.8333H22.6667C24.1696 19.8333 25.611 20.4303 26.6737 21.493C27.7364 22.5557 28.3334 23.997 28.3334 25.4999C28.3334 26.2514 28.0349 26.972 27.5035 27.5034C26.9722 28.0347 26.2515 28.3333 25.5001 28.3333H8.50008C7.74863 28.3333 7.02797 28.0347 6.49661 27.5034C5.96526 26.972 5.66675 26.2514 5.66675 25.4999Z" stroke="black" stroke-width="1.875" stroke-linejoin="round"/>
<path d="M17 14.1666C19.3472 14.1666 21.25 12.2638 21.25 9.91663C21.25 7.56942 19.3472 5.66663 17 5.66663C14.6528 5.66663 12.75 7.56942 12.75 9.91663C12.75 12.2638 14.6528 14.1666 17 14.1666Z" stroke="black" stroke-width="1.875"/>
</svg>
